HIERARCHY
ROOT Hips
{
    OFFSET 0.000000 0.000000 0.000000
    CHANNELS 6 Xposition Yposition Zposition Zrotation Xrotation Yrotation
    JOINT Spine
    {
        OFFSET -0.000000 14.517291 0.000000
        CHANNELS 3 Zrotation Xrotation Yrotation
        JOINT Spine1
        {
            OFFSET -0.000000 37.558300 0.000000
            CHANNELS 3 Zrotation Xrotation Yrotation
            JOINT Neck
            {
                OFFSET -0.000000 37.404057 3.400369
                CHANNELS 3 Zrotation Xrotation Yrotation
                JOINT Head
                {
                    OFFSET -0.000000 24.785618 -3.540803
                    CHANNELS 3 Zrotation Xrotation Yrotation
                    End Site
                    {
                        OFFSET -0.000000 35.408028 0.000000
                    }
                }
            }
            JOINT LeftShoulder
            {
                OFFSET 6.992933 33.973492 -0.192664
                CHANNELS 3 Zrotation Xrotation Yrotation
                JOINT LeftArm
                {
                    OFFSET 21.527611 0.000000 0.000000
                    CHANNELS 3 Zrotation Xrotation Yrotation
                    JOINT LeftForeArm
                    {
                        OFFSET 56.353916 0.000000 0.000000
                        CHANNELS 3 Zrotation Xrotation Yrotation
                        JOINT LeftHand
                        {
                            OFFSET 47.774071 0.000000 0.000000
                            CHANNELS 3 Zrotation Xrotation Yrotation
                            End Site
                            {
                                OFFSET 26.556021 0.000000 0.000000
                            }
                        }
                    }
                }
            }
            JOINT RightShoulder
            {
                OFFSET -7.065357 33.973492 -0.192664
                CHANNELS 3 Zrotation Xrotation Yrotation
                JOINT RightArm
                {
                    OFFSET -21.527611 0.000000 0.000000
                    CHANNELS 3 Zrotation Xrotation Yrotation
                    JOINT RightForeArm
                    {
                        OFFSET -56.353916 0.000000 0.000000
                        CHANNELS 3 Zrotation Xrotation Yrotation
                        JOINT RightHand
                        {
                            OFFSET -47.774071 0.000000 0.000000
                            CHANNELS 3 Zrotation Xrotation Yrotation
                            End Site
                            {
                                OFFSET -26.556021 0.000000 0.000000
                            }
                        }
                    }
                }
            }
        }
    }
    JOINT LeftUpLeg
    {
        OFFSET 17.704014 0.000000 0.000000
        CHANNELS 3 Zrotation Xrotation Yrotation
        JOINT LeftLeg
        {
            OFFSET -0.000000 -81.181816 0.000000
            CHANNELS 3 Zrotation Xrotation Yrotation
            JOINT LeftFoot
            {
                OFFSET -0.000000 -62.821102 0.000000
                CHANNELS 3 Zrotation Xrotation Yrotation
                JOINT LeftToeBase
                {
                    OFFSET -0.000000 -11.507608 26.556021
                    CHANNELS 3 Zrotation Xrotation Yrotation
                    End Site
                    {
                        OFFSET -0.000000 0.000000 7.081605
                    }
                }
            }
        }
    }
    JOINT RightUpLeg
    {
        OFFSET -17.704014 0.000000 0.000000
        CHANNELS 3 Zrotation Xrotation Yrotation
        JOINT RightLeg
        {
            OFFSET -0.000000 -81.181816 0.000000
            CHANNELS 3 Zrotation Xrotation Yrotation
            JOINT RightFoot
            {
                OFFSET -0.000000 -62.821102 0.000000
                CHANNELS 3 Zrotation Xrotation Yrotation
                JOINT RightToeBase
                {
                    OFFSET -0.000000 -11.507608 26.556021
                    CHANNELS 3 Zrotation Xrotation Yrotation
                    End Site
                    {
                        OFFSET -0.000000 0.000000 7.081605
                    }
                }
            }
        }
    }
}
MOTION
Frames:    10
Frame Time:    0.008333
-11.171018    150.849609    -99.443153    1.286375    -5.009843    48.325764    -2.719325    0.388894    0.644691    -0.875919    1.878978    0.225367    -0.537743    5.409803    -21.192015    17.962147    -0.182115    -19.550053    3.806793    8.170989    -13.519328    -35.257477    23.307747    -50.150505    -2.417677    -27.448748    -119.959885    -8.206574    -30.324570    -12.516560    -2.819475    6.464746    -5.451966    34.152580    22.490057    16.892391    -22.457462    -13.141825    -4.870713    -14.619648    -15.519301    11.547849    17.031950    -6.036722    -7.842363    -19.991831    44.331554    -20.373760    9.861109    -32.667454    52.963978    0.000000    0.000000    0.000000    -25.685329    -16.203125    -26.792444    10.509276    31.107311    -17.927580    6.793205    5.948966    -8.676036    0.000000    0.000000    0.000000    
-11.150548    150.849426    -99.429123    1.279985    -5.005649    48.300907    -2.738535    0.390033    0.625944    -0.866575    1.859762    0.218921    -0.521151    5.398467    -21.173048    17.946447    -0.163194    -19.536779    3.811076    8.175099    -13.526313    -35.261780    23.313721    -50.149456    -2.420182    -27.457699    -119.969498    -8.195782    -30.339413    -12.504730    -2.840086    6.424004    -5.491697    34.220856    22.568295    16.670309    -22.236319    -13.064576    -4.918808    -14.495517    -15.402813    11.326003    17.028189    -6.026536    -7.833703    -19.991720    44.335114    -20.364445    9.860185    -32.676403    52.970757    0.000000    0.000000    0.000000    -25.681763    -16.215940    -26.782007    10.504853    31.111860    -17.934532    6.796349    5.945528    -8.658735    0.000000    0.000000    0.000000    
-11.125542    150.855331    -99.414406    1.274328    -5.008827    48.281548    -2.742346    0.387186    0.598989    -0.859221    1.854899    0.209855    -0.522242    5.395508    -21.154982    17.946209    -0.154890    -19.518936    3.798014    8.180600    -13.517899    -35.245205    23.309290    -50.154381    -2.421541    -27.473749    -119.974869    -8.224467    -30.354734    -12.502205    -2.879960    6.418507    -5.541725    34.286545    22.569721    16.494778    -21.982407    -12.980518    -4.956922    -14.576501    -15.332775    11.398778    17.029358    -6.009998    -7.849679    -20.006227    44.328529    -20.338926    9.864136    -32.679516    52.982098    0.000000    0.000000    0.000000    -25.672020    -16.219746    -26.795212    10.486529    31.117760    -17.898918    6.806627    5.956616    -8.672393    0.000000    0.000000    0.000000    
-11.102191    150.855988    -99.403999    1.267584    -5.011261    48.258690    -2.744089    0.380177    0.575753    -0.862589    1.855436    0.202141    -0.491841    5.389065    -21.136374    17.918013    -0.157616    -19.505817    3.811392    8.182171    -13.518792    -35.241150    23.308598    -50.159019    -2.423765    -27.493456    -119.977776    -8.247813    -30.375324    -12.498991    -2.900026    6.383809    -5.577339    34.350323    22.463163    16.304792    -21.681402    -12.824679    -4.978707    -14.649005    -15.191160    11.514739    17.027145    -5.994437    -7.850072    -20.005058    44.326664    -20.324114    9.867377    -32.688999    52.985634    0.000000    0.000000    0.000000    -25.664543    -16.227947    -26.774052    10.488547    31.119152    -17.913185    6.809087    5.963450    -8.662431    0.000000    0.000000    0.000000    
-11.077705    150.859161    -99.393372    1.258410    -5.012954    48.242275    -2.763632    0.365979    0.539847    -0.814856    1.810123    0.189090    -0.524922    5.498592    -21.112549    17.945578    -0.195562    -19.468117    3.756246    8.237474    -13.570356    -35.230614    23.270700    -50.094650    -2.430147    -27.506405    -119.970337    -8.281816    -30.392059    -12.525468    -2.937864    6.435755    -5.553090    34.426125    22.345387    16.103664    -21.461477    -12.710009    -5.009214    -14.787346    -15.098499    11.602661    17.027948    -5.983667    -7.886997    -20.041302    44.312435    -20.285099    9.870114    -32.700264    53.015133    0.000000    0.000000    0.000000    -25.658516    -16.234266    -26.778500    10.481428    31.124725    -17.904970    6.813530    5.972735    -8.658180    0.000000    0.000000    0.000000    
-11.053918    150.860291    -99.383179    1.249299    -5.015376    48.219337    -2.770709    0.366558    0.512792    -0.800776    1.791669    0.179908    -0.525146    5.506815    -21.100533    17.947969    -0.186509    -19.456558    3.752541    8.249127    -13.557763    -35.233467    23.244171    -50.101978    -2.451681    -27.473618    -119.974022    -8.260584    -30.395517    -12.511880    -2.968209    6.409638    -5.582634    34.496189    22.312969    15.931672    -21.269476    -12.706485    -5.098004    -14.908326    -15.103901    11.516970    17.027632    -5.965273    -7.904313    -20.051010    44.297684    -20.257925    9.889594    -32.702583    53.023666    0.000000    0.000000    0.000000    -25.649538    -16.245239    -26.753094    10.485279    31.128811    -17.917986    6.823784    5.976977    -8.657038    0.000000    0.000000    0.000000    
-11.005284    150.856323    -99.355927    1.238371    -5.013947    48.178112    -2.768215    0.304056    0.496774    -0.800918    1.847346    0.175250    -0.512814    5.492414    -21.091534    17.935339    -0.178672    -19.451180    3.760747    8.242289    -13.528811    -35.241837    23.221107    -50.115368    -2.486422    -27.432972    -119.990402    -8.278276    -30.408110    -12.502337    -2.994158    6.391888    -5.633844    34.534584    22.344261    15.827384    -21.113480    -12.710035    -5.230563    -15.031228    -15.135105    11.505749    17.028576    -5.925704    -7.892675    -20.057600    44.277569    -20.243877    9.912128    -32.724873    53.040051    0.000000    0.000000    0.000000    -25.646257    -16.250193    -26.721478    10.504993    31.128162    -17.923172    6.832018    5.956359    -8.654442    0.000000    0.000000    0.000000    
-10.976003    150.859879    -99.349884    1.235589    -5.017901    48.155571    -2.762024    0.303312    0.470948    -0.813847    1.841456    0.166881    -0.490370    5.498807    -21.080273    17.924892    -0.181920    -19.442528    3.781697    8.244660    -13.521496    -35.249699    23.210032    -50.124096    -2.497685    -27.428736    -119.992172    -8.292147    -30.419252    -12.506917    -2.999212    6.372551    -5.683198    34.586464    22.296822    15.711411    -20.968113    -12.651381    -5.339382    -14.760553    -15.058769    11.471084    17.019411    -5.900078    -7.903057    -20.051056    44.261562    -20.245121    9.931067    -32.731010    53.069050    0.000000    0.000000    0.000000    -25.640503    -16.252432    -26.712641    10.496052    31.127871    -17.930223    6.821607    5.970913    -8.624813    0.000000    0.000000    0.000000    
-10.947008    150.862381    -99.341377    1.235209    -5.022515    48.136440    -2.759929    0.294351    0.438856    -0.819467    1.846278    0.156147    -0.474970    5.482301    -21.064100    17.902748    -0.149183    -19.435083    3.791148    8.249619    -13.509628    -35.244057    23.196062    -50.133320    -2.519962    -27.427191    -119.999062    -8.288815    -30.451868    -12.511141    -3.014730    6.361203    -5.726089    34.631004    22.065563    15.637133    -20.687155    -12.537401    -5.430287    -14.792088    -14.949006    11.446928    17.010542    -5.876729    -7.906558    -20.041170    44.258797    -20.242258    9.920820    -32.751072    53.075546    0.000000    0.000000    0.000000    -25.639700    -16.248285    -26.686295    10.510904    31.122406    -17.911819    6.843734    5.975687    -8.675693    0.000000    0.000000    0.000000    
-10.922332    150.863098    -99.334953    1.231025    -5.022266    48.113327    -2.757563    0.289573    0.417114    -0.830566    1.841282    0.149269    -0.448291    5.482988    -21.062477    17.882591    -0.145464    -19.439404    3.812267    8.247386    -13.514343    -35.228695    23.205282    -50.140602    -2.523037    -27.461000    -120.003601    -8.289955    -30.489574    -12.506875    -3.020670    6.315161    -5.771559    34.665718    21.925711    15.544149    -20.432367    -12.421572    -5.538451    -15.014936    -14.834636    11.225507    17.001553    -5.859024    -7.905957    -20.035172    44.252571    -20.230745    9.942406    -32.751816    53.086254    0.000000    0.000000    0.000000    -25.637257    -16.254000    -26.668102    10.515867    31.121086    -17.916458    6.837116    5.979741    -8.663995    0.000000    0.000000    0.000000    
